<svg width="959" height="976" viewBox="0 0 959 976" fill="none" xmlns="http://www.w3.org/2000/svg">
<g filter="url(#filter0_f_21_630)">
<circle cx="416.863" cy="416.864" r="325.408" transform="rotate(-2.75515 416.863 416.864)" fill="url(#paint0_linear_21_630)"/>
<circle cx="416.863" cy="416.864" r="324.969" transform="rotate(-2.75515 416.863 416.864)" stroke="url(#paint1_linear_21_630)" stroke-width="0.879312"/>
</g>
<g filter="url(#filter1_f_21_630)">
<circle cx="416.863" cy="416.864" r="325.408" transform="rotate(-2.75515 416.863 416.864)" fill="url(#paint2_linear_21_630)"/>
<circle cx="416.863" cy="416.864" r="324.969" transform="rotate(-2.75515 416.863 416.864)" stroke="url(#paint3_linear_21_630)" stroke-width="0.879312"/>
</g>
<circle cx="416.863" cy="416.864" r="324.969" transform="rotate(-2.75515 416.863 416.864)" fill="url(#paint4_linear_21_630)" stroke="url(#paint5_linear_21_630)" stroke-width="0.879312"/>
<g filter="url(#filter2_f_21_630)">
<circle cx="636.257" cy="643.414" r="212.933" fill="#FFF500" fill-opacity="0.3"/>
</g>
<g filter="url(#filter3_f_21_630)">
<ellipse cx="423.92" cy="474.619" rx="178.339" ry="178.935" fill="white" fill-opacity="0.75"/>
</g>
<path d="M266.507 390.321V407.333H289.351V418.123H266.507V436.108H292.268V447.19H252.897V379.239H292.268V390.321H266.507ZM318.245 436.399H340.604V447.19H304.636V379.336H318.245V436.399ZM362.864 390.321V407.333H385.709V418.123H362.864V436.108H388.625V447.19H349.254V379.239H388.625V390.321H362.864ZM461.944 379.336L437.058 447.19H420.532L395.646 379.336H410.228L428.893 433.289L447.46 379.336H461.944ZM483.714 390.321V407.333H506.559V418.123H483.714V436.108H509.475V447.19H470.104V379.239H509.475V390.321H483.714ZM579.878 447.19H566.268L535.452 400.625V447.19H521.843V379.239H535.452L566.268 425.9V379.239H579.878V447.19Z" fill="#FF1F20"/>
<path d="M267.455 465.026V468.115H259.498V473.009H265.595V476.044H259.498V484.11H255.671V465.026H267.455ZM299.806 484.301C298.02 484.301 296.379 483.882 294.885 483.043C293.39 482.205 292.205 481.047 291.331 479.571C290.456 478.076 290.018 476.39 290.018 474.513C290.018 472.654 290.456 470.986 291.331 469.51C292.205 468.015 293.39 466.848 294.885 466.01C296.379 465.172 298.02 464.752 299.806 464.752C301.611 464.752 303.251 465.172 304.727 466.01C306.222 466.848 307.398 468.015 308.254 469.51C309.129 470.986 309.567 472.654 309.567 474.513C309.567 476.39 309.129 478.076 308.254 479.571C307.398 481.047 306.222 482.205 304.727 483.043C303.233 483.882 301.592 484.301 299.806 484.301ZM299.806 480.883C300.954 480.883 301.966 480.628 302.841 480.118C303.716 479.589 304.399 478.842 304.892 477.876C305.384 476.91 305.63 475.789 305.63 474.513C305.63 473.237 305.384 472.125 304.892 471.177C304.399 470.211 303.716 469.473 302.841 468.963C301.966 468.452 300.954 468.197 299.806 468.197C298.658 468.197 297.637 468.452 296.744 468.963C295.869 469.473 295.186 470.211 294.693 471.177C294.201 472.125 293.955 473.237 293.955 474.513C293.955 475.789 294.201 476.91 294.693 477.876C295.186 478.842 295.869 479.589 296.744 480.118C297.637 480.628 298.658 480.883 299.806 480.883ZM342.052 484.301C340.266 484.301 338.625 483.882 337.131 483.043C335.636 482.205 334.451 481.047 333.576 479.571C332.701 478.076 332.264 476.39 332.264 474.513C332.264 472.654 332.701 470.986 333.576 469.51C334.451 468.015 335.636 466.848 337.131 466.01C338.625 465.172 340.266 464.752 342.052 464.752C343.856 464.752 345.497 465.172 346.973 466.01C348.468 466.848 349.644 468.015 350.5 469.51C351.375 470.986 351.813 472.654 351.813 474.513C351.813 476.39 351.375 478.076 350.5 479.571C349.644 481.047 348.468 482.205 346.973 483.043C345.479 483.882 343.838 484.301 342.052 484.301ZM342.052 480.883C343.2 480.883 344.212 480.628 345.087 480.118C345.962 479.589 346.645 478.842 347.137 477.876C347.629 476.91 347.875 475.789 347.875 474.513C347.875 473.237 347.629 472.125 347.137 471.177C346.645 470.211 345.962 469.473 345.087 468.963C344.212 468.452 343.2 468.197 342.052 468.197C340.904 468.197 339.883 468.452 338.99 468.963C338.115 469.473 337.431 470.211 336.939 471.177C336.447 472.125 336.201 473.237 336.201 474.513C336.201 475.789 336.447 476.91 336.939 477.876C337.431 478.842 338.115 479.589 338.99 480.118C339.883 480.628 340.904 480.883 342.052 480.883ZM382.11 465.026C384.115 465.026 385.874 465.418 387.387 466.201C388.918 466.985 390.094 468.106 390.914 469.564C391.753 471.004 392.172 472.681 392.172 474.595C392.172 476.509 391.753 478.186 390.914 479.626C390.094 481.047 388.918 482.15 387.387 482.934C385.874 483.718 384.115 484.11 382.11 484.11H375.439V465.026H382.11ZM381.974 480.856C383.979 480.856 385.528 480.309 386.622 479.216C387.715 478.122 388.262 476.582 388.262 474.595C388.262 472.608 387.715 471.059 386.622 469.947C385.528 468.817 383.979 468.252 381.974 468.252H379.267V480.856H381.974ZM422.405 484.301C421.075 484.301 419.872 484.073 418.796 483.617C417.739 483.162 416.901 482.506 416.281 481.649C415.661 480.792 415.342 479.781 415.324 478.614H419.425C419.48 479.398 419.753 480.018 420.245 480.473C420.756 480.929 421.448 481.157 422.323 481.157C423.216 481.157 423.918 480.947 424.428 480.528C424.939 480.09 425.194 479.525 425.194 478.833C425.194 478.268 425.021 477.803 424.674 477.438C424.328 477.074 423.891 476.791 423.362 476.591C422.852 476.372 422.141 476.135 421.229 475.88C419.99 475.515 418.978 475.16 418.195 474.814C417.429 474.449 416.764 473.911 416.199 473.201C415.652 472.472 415.379 471.505 415.379 470.302C415.379 469.172 415.661 468.188 416.226 467.35C416.791 466.511 417.584 465.873 418.605 465.436C419.625 464.98 420.792 464.752 422.104 464.752C424.073 464.752 425.668 465.235 426.889 466.201C428.128 467.149 428.812 468.48 428.94 470.193H424.729C424.693 469.537 424.41 468.999 423.882 468.58C423.371 468.143 422.688 467.924 421.831 467.924C421.084 467.924 420.482 468.115 420.026 468.498C419.589 468.881 419.37 469.437 419.37 470.166C419.37 470.676 419.534 471.104 419.862 471.451C420.209 471.779 420.628 472.052 421.12 472.271C421.63 472.472 422.341 472.708 423.253 472.982C424.492 473.346 425.504 473.711 426.287 474.075C427.071 474.44 427.746 474.987 428.311 475.716C428.876 476.445 429.158 477.402 429.158 478.587C429.158 479.607 428.894 480.555 428.365 481.43C427.837 482.305 427.062 483.007 426.041 483.535C425.021 484.046 423.809 484.301 422.405 484.301Z" fill="#FF1F20"/>
<path d="M474.427 465.026V484.11H470.599V465.026H474.427ZM515.31 484.11H511.483L502.816 471.013V484.11H498.988V464.998H502.816L511.483 478.122V464.998H515.31V484.11ZM538.942 474.54C538.942 472.663 539.362 470.986 540.2 469.51C541.057 468.015 542.214 466.858 543.672 466.037C545.149 465.199 546.798 464.78 548.621 464.78C550.754 464.78 552.622 465.326 554.226 466.42C555.83 467.514 556.951 469.027 557.589 470.959H553.187C552.749 470.047 552.13 469.364 551.328 468.908C550.544 468.452 549.633 468.225 548.594 468.225C547.482 468.225 546.488 468.489 545.613 469.017C544.757 469.528 544.082 470.257 543.59 471.205C543.116 472.153 542.879 473.264 542.879 474.54C542.879 475.798 543.116 476.91 543.59 477.876C544.082 478.824 544.757 479.562 545.613 480.09C546.488 480.601 547.482 480.856 548.594 480.856C549.633 480.856 550.544 480.628 551.328 480.172C552.13 479.699 552.749 479.006 553.187 478.095H557.589C556.951 480.045 555.83 481.567 554.226 482.66C552.64 483.736 550.772 484.274 548.621 484.274C546.798 484.274 545.149 483.863 543.672 483.043C542.214 482.205 541.057 481.047 540.2 479.571C539.362 478.095 538.942 476.418 538.942 474.54ZM583.332 484.301C582.64 484.301 582.065 484.091 581.61 483.672C581.172 483.235 580.954 482.697 580.954 482.059C580.954 481.421 581.172 480.892 581.61 480.473C582.065 480.036 582.64 479.817 583.332 479.817C584.007 479.817 584.563 480.036 585 480.473C585.437 480.892 585.656 481.421 585.656 482.059C585.656 482.697 585.437 483.235 585 483.672C584.563 484.091 584.007 484.301 583.332 484.301Z" fill="#FF1F20"/>
<path d="M432.226 132.421C432.174 133.692 431.826 134.879 431.181 135.981C430.536 137.084 429.539 137.969 428.191 138.635C426.844 139.277 425.139 139.556 423.077 139.472L418.545 139.289L418.134 149.432L414.033 149.266L415.046 124.267L423.679 124.616C425.597 124.694 427.202 125.095 428.494 125.82C429.811 126.522 430.77 127.45 431.372 128.603C431.997 129.757 432.282 131.03 432.226 132.421ZM423.212 136.127C424.771 136.19 425.948 135.89 426.744 135.225C427.54 134.537 427.965 133.545 428.017 132.25C428.128 129.517 426.637 128.087 423.543 127.962L419.011 127.778L418.68 135.944L423.212 136.127Z" fill="black"/>
<path d="M454.936 130.658L453.772 137.909L462.302 139.28L461.771 142.585L453.241 141.215L452.024 148.786L461.621 150.327L461.09 153.633L447.441 151.44L451.416 126.701L465.064 128.894L464.533 132.2L454.936 130.658Z" fill="black"/>
<path d="M488.956 160.401C486.73 159.72 484.834 158.575 483.268 156.966C481.733 155.341 480.699 153.431 480.166 151.234C479.664 149.022 479.771 146.746 480.488 144.405C481.205 142.065 482.387 140.13 484.034 138.601C485.705 137.08 487.628 136.087 489.803 135.624C492.008 135.144 494.223 135.245 496.449 135.927C498.698 136.615 500.591 137.772 502.126 139.397C503.692 141.006 504.729 142.905 505.239 145.094C505.748 147.283 505.645 149.548 504.928 151.888C504.211 154.229 503.025 156.175 501.371 157.727C499.723 159.255 497.797 160.259 495.592 160.739C493.417 161.202 491.205 161.09 488.956 160.401ZM489.999 156.993C491.583 157.478 493.103 157.555 494.56 157.223C496.024 156.868 497.304 156.13 498.4 155.01C499.526 153.874 500.359 152.422 500.9 150.655C501.441 148.888 501.56 147.23 501.256 145.682C500.975 144.14 500.324 142.823 499.303 141.733C498.281 140.642 496.979 139.854 495.395 139.369C493.812 138.884 492.292 138.808 490.835 139.14C489.378 139.472 488.09 140.194 486.971 141.308C485.875 142.428 485.056 143.871 484.515 145.638C483.974 147.405 483.841 149.071 484.115 150.636C484.418 152.185 485.078 153.516 486.092 154.63C487.113 155.721 488.416 156.509 489.999 156.993Z" fill="black"/>
<path d="M542.806 162.362C542.264 163.513 541.482 164.471 540.459 165.237C539.436 166.002 538.174 166.429 536.673 166.519C535.182 166.587 533.503 166.182 531.636 165.303L527.531 163.372L523.21 172.559L519.496 170.812L530.146 148.172L537.964 151.849C539.702 152.667 541.025 153.66 541.933 154.83C542.873 155.989 543.397 157.216 543.503 158.513C543.631 159.819 543.398 161.103 542.806 162.362ZM533.061 162.274C534.472 162.938 535.674 163.118 536.665 162.815C537.666 162.491 538.443 161.742 538.995 160.569C540.159 158.094 539.341 156.197 536.539 154.879L532.435 152.948L528.956 160.343L533.061 162.274Z" fill="black"/>
<path d="M554.587 185.152L561.793 189.584L560.058 192.405L549.356 185.823L562.463 164.511L565.959 166.661L554.587 185.152Z" fill="black"/>
<path d="M588.687 185.852L584.194 191.661L591.029 196.947L588.98 199.595L582.146 194.309L577.455 200.375L585.143 206.321L583.095 208.97L572.16 200.512L587.489 180.693L598.424 189.15L596.376 191.798L588.687 185.852Z" fill="black"/>
<path d="M631.169 235.087L628.587 237.384L618.752 226.33L621.334 224.033L631.169 235.087Z" fill="black"/>
<path d="M664.257 262.926L643.132 276.333L640.933 272.868L662.057 259.461L664.257 262.926Z" fill="black"/>
<path d="M659.801 306.837L657.975 303.161L669.216 283.791L652.482 292.102L650.657 288.426L673.098 277.281L674.923 280.957L663.714 300.311L680.416 292.016L682.241 295.692L659.801 306.837Z" fill="black"/>
<path d="M695.788 330.524L692.623 331.617L690.449 325.322L669.965 332.399L668.624 328.52L689.108 321.443L686.922 315.115L690.086 314.021L695.788 330.524Z" fill="black"/>
<path d="M698.368 352.183L691.198 353.775L693.072 362.21L689.804 362.936L687.93 354.501L680.445 356.164L682.552 365.653L679.284 366.379L676.286 352.884L700.746 347.45L703.744 360.945L700.475 361.671L698.368 352.183Z" fill="black"/>
<path d="M701.827 399.992C703.019 399.245 703.879 398.272 704.408 397.074C704.961 395.873 705.177 394.52 705.055 393.013C704.921 391.362 704.431 389.921 703.585 388.689C702.739 387.457 701.604 386.526 700.181 385.895C698.759 385.287 697.151 385.056 695.357 385.201C693.563 385.347 692.001 385.834 690.672 386.664C689.368 387.516 688.398 388.618 687.761 389.97C687.124 391.321 686.872 392.823 687.006 394.473C687.186 396.698 687.954 398.454 689.31 399.741C690.666 401.027 692.422 401.74 694.576 401.879L693.818 392.513L697.083 392.249L698.195 405.992L695.002 406.251C693.043 406.144 691.205 405.595 689.487 404.602C687.771 403.633 686.35 402.292 685.224 400.577C684.124 398.884 683.486 396.949 683.31 394.772C683.12 392.428 683.485 390.243 684.405 388.219C685.348 386.192 686.742 384.526 688.587 383.221C690.434 381.94 692.577 381.201 695.017 381.003C697.457 380.806 699.692 381.191 701.72 382.158C703.751 383.15 705.383 384.571 706.616 386.421C707.875 388.294 708.599 390.39 708.786 392.71C709.001 395.366 708.534 397.775 707.385 399.939C706.262 402.125 704.542 403.781 702.225 404.908L701.827 399.992Z" fill="black"/>
<path d="M684.056 439.99L694.413 434.884L694.614 431.758L684.627 431.116L684.89 427.021L709.859 428.626L709.304 437.248C709.181 439.164 708.742 440.759 707.987 442.033C707.23 443.332 706.268 444.268 705.1 444.842C703.932 445.44 702.653 445.695 701.264 445.605C699.635 445.501 698.181 444.926 696.901 443.882C695.644 442.863 694.839 441.357 694.486 439.362L683.742 444.876L684.056 439.99ZM697.883 431.968L697.592 436.495C697.494 438.028 697.803 439.202 698.52 440.018C699.236 440.858 700.24 441.319 701.534 441.402C702.827 441.485 703.858 441.167 704.625 440.446C705.417 439.728 705.863 438.59 705.963 437.033L706.254 432.507L697.883 431.968Z" fill="black"/>
<path d="M705.709 469.51L681.015 465.483L681.676 461.433L706.37 465.459L705.709 469.51Z" fill="black"/>
<path d="M698.672 501.268L695.43 500.434L697.09 493.984L676.102 488.581L677.125 484.607L698.113 490.009L699.782 483.525L703.025 484.359L698.672 501.268Z" fill="black"/>
<path d="M686.704 535.548L674.84 522.052L666.384 518.765L667.871 514.94L676.327 518.227L694.204 516.254L692.547 520.516L679.006 521.47L688.348 531.32L686.704 535.548Z" fill="black"/>
<path d="M652.485 577.901L649.559 576.063L657.429 563.533L660.355 565.372L652.485 577.901Z" fill="black"/>
<path d="M627.356 625.797L624.893 623.53L632.083 615.715L626.653 610.718L621.046 616.811L618.582 614.544L624.189 608.451L616.135 601.04L618.914 598.02L637.326 614.962L627.356 625.797Z" fill="black"/>
<path d="M611.441 641.264L601.126 629.102C599.899 627.656 598.601 626.885 597.229 626.789C595.84 626.709 594.467 627.243 593.113 628.392C591.74 629.556 590.989 630.823 590.86 632.191C590.712 633.575 591.251 634.99 592.477 636.436L602.793 648.599L599.663 651.254L589.394 639.146C588.075 637.59 587.295 635.985 587.057 634.331C586.818 632.676 587.041 631.103 587.726 629.609C588.41 628.116 589.439 626.787 590.812 625.623C592.185 624.459 593.664 623.661 595.249 623.229C596.815 622.813 598.386 622.866 599.961 623.387C601.536 623.908 602.983 624.946 604.302 626.502L614.571 638.61L611.441 641.264Z" fill="black"/>
<path d="M551.906 654.071L555.376 651.88L575.792 661.086L565.817 645.288L569.287 643.097L582.664 664.283L579.194 666.474L558.797 657.299L568.753 673.067L565.283 675.258L551.906 654.071Z" fill="black"/>
<path d="M509.594 690.117L508.365 686.887L522.194 681.625L523.423 684.855L509.594 690.117Z" fill="black"/>
<path d="M456.57 693.663L466.901 691.928L467.83 686.589L472.055 685.879L467.363 712.074L462.677 712.861L449.688 689.635L453.948 688.919L456.57 693.663ZM458.261 696.774L464.198 707.568L466.32 695.421L458.261 696.774Z" fill="black"/>
<path d="M435.129 704.116C435.176 706.564 434.653 708.77 433.563 710.735C432.448 712.701 430.929 714.242 429.006 715.359C427.059 716.5 424.922 717.092 422.594 717.137C419.931 717.187 417.555 716.572 415.466 715.292C413.354 714.036 411.807 712.217 410.825 709.835L415.757 709.741C416.43 711.049 417.348 712.016 418.512 712.641C419.676 713.267 421.014 713.566 422.526 713.537C424.182 713.506 425.65 713.106 426.932 712.337C428.214 711.569 429.213 710.482 429.93 709.076C430.624 707.67 430.953 706.044 430.918 704.196C430.883 702.348 430.492 700.736 429.746 699.358C428.975 697.98 427.935 696.92 426.625 696.176C425.315 695.457 423.832 695.113 422.176 695.145C420.665 695.173 419.339 695.523 418.199 696.192C417.06 696.862 416.179 697.863 415.556 699.195L410.625 699.289C411.515 696.872 412.992 694.995 415.055 693.66C417.094 692.325 419.445 691.632 422.108 691.581C424.46 691.537 426.618 692.036 428.582 693.079C430.547 694.145 432.123 695.64 433.312 697.561C434.477 699.484 435.083 701.669 435.129 704.116Z" fill="black"/>
<path d="M390.594 704.013C390.257 706.438 389.397 708.536 388.013 710.306C386.604 712.074 384.863 713.359 382.789 714.161C380.688 714.985 378.485 715.236 376.179 714.916C373.54 714.55 371.289 713.572 369.426 711.981C367.536 710.41 366.292 708.372 365.695 705.866L370.58 706.544C371.041 707.94 371.797 709.039 372.849 709.839C373.901 710.639 375.176 711.143 376.674 711.351C378.314 711.578 379.827 711.412 381.213 710.853C382.599 710.295 383.756 709.377 384.684 708.1C385.589 706.82 386.168 705.265 386.422 703.435C386.675 701.604 386.541 699.95 386.02 698.472C385.474 696.991 384.612 695.782 383.434 694.843C382.252 693.928 380.841 693.356 379.201 693.129C377.703 692.921 376.34 693.059 375.109 693.543C373.879 694.026 372.853 694.877 372.029 696.096L367.144 695.418C368.401 693.17 370.153 691.547 372.399 690.55C374.621 689.55 377.052 689.233 379.691 689.599C382.02 689.922 384.074 690.752 385.851 692.089C387.625 693.449 388.949 695.172 389.823 697.255C390.673 699.336 390.93 701.589 390.594 704.013Z" fill="black"/>
<path d="M338.095 680.984C340.321 681.666 342.217 682.811 343.783 684.419C345.318 686.044 346.353 687.954 346.885 690.15C347.388 692.362 347.281 694.639 346.564 696.979C345.848 699.32 344.666 701.255 343.018 702.784C341.348 704.305 339.425 705.298 337.25 705.762C335.045 706.241 332.829 706.141 330.603 705.459C328.354 704.771 326.462 703.614 324.926 701.99C323.361 700.381 322.323 698.482 321.813 696.293C321.304 694.104 321.407 691.839 322.124 689.498C322.84 687.157 324.026 685.211 325.68 683.66C327.328 682.131 329.254 681.127 331.459 680.647C333.634 680.183 335.846 680.296 338.095 680.984ZM337.052 684.392C335.468 683.907 333.948 683.831 332.491 684.163C331.027 684.518 329.747 685.256 328.651 686.376C327.525 687.512 326.692 688.964 326.151 690.731C325.61 692.498 325.492 694.156 325.796 695.705C326.077 697.247 326.728 698.563 327.75 699.654C328.771 700.744 330.074 701.532 331.657 702.017C333.241 702.502 334.761 702.578 336.218 702.246C337.675 701.914 338.963 701.191 340.082 700.078C341.177 698.957 341.996 697.514 342.537 695.747C343.078 693.98 343.211 692.314 342.937 690.749C342.633 689.2 341.974 687.869 340.959 686.755C339.938 685.664 338.635 684.877 337.052 684.392Z" fill="black"/>
<path d="M292.994 691.434L299.884 677.051C300.703 675.341 300.876 673.841 300.403 672.55C299.909 671.249 298.861 670.214 297.259 669.447C295.636 668.669 294.173 668.501 292.871 668.941C291.547 669.372 290.476 670.442 289.657 672.152L282.767 686.535L279.065 684.762L285.924 670.444C286.806 668.604 287.953 667.237 289.365 666.344C290.778 665.451 292.306 665.011 293.948 665.027C295.591 665.042 297.224 665.438 298.847 666.216C300.471 666.994 301.803 668.018 302.844 669.288C303.864 670.548 304.457 672.004 304.625 673.654C304.792 675.304 304.435 677.049 303.554 678.889L296.695 693.207L292.994 691.434Z" fill="black"/>
<path d="M256.992 642.318L260.409 644.591L260.342 666.987L270.69 651.43L274.107 653.703L260.23 674.565L256.813 672.292L256.86 649.927L246.532 665.454L243.115 663.181L256.992 642.318Z" fill="black"/>
<path d="M213.984 639.767L216.179 637.24L221.207 641.607L235.42 625.247L238.518 627.938L224.305 644.299L229.36 648.69L227.164 651.218L213.984 639.767Z" fill="black"/>
<path d="M205.695 602.84L212.677 610.65L217.688 608.584L220.543 611.778L195.89 621.796L192.723 618.254L205.426 594.871L208.306 598.091L205.695 602.84ZM203.967 605.931L198.01 616.714L209.414 612.022L203.967 605.931Z" fill="black"/>
<path d="M177.207 578.366C176.651 577.119 176.596 575.778 177.043 574.343C177.49 572.908 178.329 571.773 179.56 570.937C180.613 570.223 181.755 569.853 182.986 569.83C184.184 569.799 185.381 570.132 186.579 570.828C187.756 571.536 188.81 572.576 189.741 573.946L195.363 582.226L174.663 596.281L169.304 588.388C168.347 586.978 167.763 585.605 167.552 584.269C167.341 582.933 167.467 581.73 167.931 580.661C168.374 579.606 169.093 578.741 170.085 578.067C171.277 577.258 172.485 576.902 173.711 576.998C174.936 577.094 176.102 577.55 177.207 578.366ZM181.055 586.98L178.203 582.781C177.448 581.669 176.614 580.974 175.699 580.695C174.752 580.41 173.801 580.592 172.848 581.239C171.915 581.872 171.406 582.682 171.321 583.668C171.203 584.648 171.521 585.693 172.276 586.805L175.128 591.005L181.055 586.98ZM187.173 576.125C186.391 574.973 185.5 574.258 184.499 573.981C183.498 573.703 182.501 573.901 181.508 574.575C180.496 575.263 179.928 576.156 179.804 577.256C179.68 578.355 180.009 579.48 180.791 580.632L183.824 585.1L190.287 580.711L187.173 576.125Z" fill="black"/>
<path d="M152.851 561.454L174.819 549.479L176.783 553.083L154.815 565.057L152.851 561.454Z" fill="black"/>
<path d="M163.688 534.557L160.27 526.818L163.299 525.48L168.375 536.973L145.488 547.081L143.83 543.327L163.688 534.557Z" fill="black"/>
<path d="M133.141 516.351L156.789 508.179L158.129 512.058L134.482 520.23L133.141 516.351Z" fill="black"/>
<path d="M124.266 485.056L127.517 484.252L129.115 490.718L150.154 485.515L151.139 489.499L130.101 494.702L131.708 501.202L128.458 502.006L124.266 485.056Z" fill="black"/>
<path d="M118.538 449.202L135.385 455.453L144.388 454.334L144.894 458.407L135.891 459.525L121.09 469.744L120.526 465.207L131.994 457.942L119.097 453.703L118.538 449.202Z" fill="black"/>
<path d="M128.565 395.684L132.013 395.913L131.03 410.677L127.582 410.447L128.565 395.684Z" fill="black"/>
<path d="M128.351 340.134L131.594 340.968L129.934 347.418L150.922 352.819L149.9 356.793L128.911 351.393L127.243 357.878L124 357.043L128.351 340.134Z" fill="black"/>
<path d="M138.15 320.648L145.008 323.275L148.1 315.207L151.226 316.405L148.134 324.473L155.295 327.217L158.773 318.14L161.899 319.338L156.953 332.247L133.555 323.282L138.502 310.373L141.628 311.571L138.15 320.648Z" fill="black"/>
<path d="M171.232 287.773L166.284 297.007L169.94 301.008L167.917 304.784L150.064 285.05L152.309 280.861L178.628 284.793L176.588 288.601L171.232 287.773ZM167.736 287.207L155.566 285.302L163.877 294.411L167.736 287.207Z" fill="black"/>
<path d="M182.816 234.599L202.789 249.668L200.318 252.944L186.638 242.624L195.721 259.036L194.008 261.307L175.711 257.108L189.39 267.428L186.919 270.704L166.945 255.636L169.612 252.101L190.565 256.905L180.171 238.105L182.816 234.599Z" fill="black"/>
<path d="M239.386 180.655L249.173 204.846L245.54 207.74L229.632 196.202L237.064 214.491L233.482 217.39L212.325 202.209L215.732 199.495L232.481 212.204L224.18 192.767L227.784 189.896L244.495 202.498L235.951 183.391L239.386 180.655Z" fill="black"/>
<path d="M280.805 184.407C278.758 185.517 276.613 186.066 274.368 186.054C272.133 186.01 270.046 185.408 268.106 184.248C266.177 183.055 264.629 181.383 263.462 179.23C262.296 177.078 261.745 174.879 261.81 172.632C261.896 170.374 262.537 168.307 263.731 166.431C264.935 164.523 266.561 163.014 268.607 161.905C270.675 160.784 272.826 160.245 275.062 160.29C277.306 160.301 279.388 160.893 281.306 162.064C283.224 163.236 284.766 164.898 285.933 167.05C287.1 169.202 287.656 171.412 287.602 173.679C287.537 175.926 286.902 178.004 285.698 179.912C284.504 181.788 282.873 183.286 280.805 184.407ZM279.107 181.274C280.563 180.485 281.683 179.454 282.468 178.183C283.241 176.89 283.613 175.46 283.582 173.893C283.561 172.294 283.111 170.682 282.23 169.057C281.349 167.432 280.25 166.185 278.933 165.316C277.637 164.436 276.241 163.977 274.747 163.94C273.254 163.904 271.779 164.28 270.323 165.07C268.867 165.859 267.747 166.889 266.962 168.161C266.177 169.433 265.789 170.858 265.798 172.436C265.829 174.003 266.284 175.599 267.165 177.223C268.046 178.848 269.14 180.111 270.448 181.013C271.765 181.882 273.177 182.345 274.682 182.403C276.176 182.439 277.651 182.063 279.107 181.274Z" fill="black"/>
<path d="M321.707 164.837L312.851 157.426L309.911 158.506L313.359 167.901L309.507 169.315L300.886 145.827L308.997 142.85C310.799 142.188 312.436 141.946 313.906 142.122C315.4 142.289 316.645 142.791 317.642 143.627C318.661 144.454 319.411 145.521 319.89 146.828C320.453 148.36 320.515 149.922 320.077 151.515C319.653 153.076 318.6 154.422 316.918 155.55L326.303 163.15L321.707 164.837ZM308.782 155.43L313.04 153.867C314.482 153.338 315.432 152.581 315.888 151.595C316.367 150.601 316.383 149.496 315.936 148.279C315.49 147.063 314.782 146.249 313.813 145.837C312.836 145.404 311.615 145.455 310.15 145.993L305.892 147.556L308.782 155.43Z" fill="black"/>
<path d="M356.022 155.61L344.077 146.867L346.584 157.779L342.584 158.698L336.982 134.313L340.982 133.394L343.537 144.516L350.455 131.218L355.472 130.065L347.681 144.709L361.25 154.409L356.022 155.61Z" fill="black"/>
<path d="M398.781 135.107L398.904 138.561L384.118 139.089L383.994 135.635L398.781 135.107Z" fill="black"/>
<defs>
<filter id="filter0_f_21_630" x="-0.000167847" y="0.000137329" width="833.727" height="833.727" filterUnits="userSpaceOnUse" color-interpolation-filters="sRGB">
<feFlood flood-opacity="0" result="BackgroundImageFix"/>
<feBlend mode="normal" in="SourceGraphic" in2="BackgroundImageFix" result="shape"/>
<feGaussianBlur stdDeviation="45.7242" result="effect1_foregroundBlur_21_630"/>
</filter>
<filter id="filter1_f_21_630" x="-0.000167847" y="1.52588e-05" width="833.727" height="833.727" filterUnits="userSpaceOnUse" color-interpolation-filters="sRGB">
<feFlood flood-opacity="0" result="BackgroundImageFix"/>
<feBlend mode="normal" in="SourceGraphic" in2="BackgroundImageFix" result="shape"/>
<feGaussianBlur stdDeviation="45.7242" result="effect1_foregroundBlur_21_630"/>
</filter>
<filter id="filter2_f_21_630" x="303.737" y="310.895" width="665.038" height="665.038" filterUnits="userSpaceOnUse" color-interpolation-filters="sRGB">
<feFlood flood-opacity="0" result="BackgroundImageFix"/>
<feBlend mode="normal" in="SourceGraphic" in2="BackgroundImageFix" result="shape"/>
<feGaussianBlur stdDeviation="59.7932" result="effect1_foregroundBlur_21_630"/>
</filter>
<filter id="filter3_f_21_630" x="125.995" y="176.097" width="595.85" height="597.043" filterUnits="userSpaceOnUse" color-interpolation-filters="sRGB">
<feFlood flood-opacity="0" result="BackgroundImageFix"/>
<feBlend mode="normal" in="SourceGraphic" in2="BackgroundImageFix" result="shape"/>
<feGaussianBlur stdDeviation="59.7932" result="effect1_foregroundBlur_21_630"/>
</filter>
<linearGradient id="paint0_linear_21_630" x1="189.295" y1="188.792" x2="544.291" y2="585.99" gradientUnits="userSpaceOnUse">
<stop stop-color="#FF833D"/>
<stop offset="1" stop-color="#FFED50"/>
</linearGradient>
<linearGradient id="paint1_linear_21_630" x1="416.863" y1="91.4554" x2="416.863" y2="742.272" gradientUnits="userSpaceOnUse">
<stop stop-color="#68A2FF"/>
<stop offset="1" stop-color="#FF83AE"/>
</linearGradient>
<linearGradient id="paint2_linear_21_630" x1="189.295" y1="188.792" x2="544.291" y2="585.99" gradientUnits="userSpaceOnUse">
<stop stop-color="#FFA800"/>
<stop offset="1" stop-color="#FDFF83"/>
</linearGradient>
<linearGradient id="paint3_linear_21_630" x1="416.863" y1="91.4553" x2="416.863" y2="742.272" gradientUnits="userSpaceOnUse">
<stop stop-color="#68A2FF"/>
<stop offset="1" stop-color="#FF83AE"/>
</linearGradient>
<linearGradient id="paint4_linear_21_630" x1="189.295" y1="188.792" x2="544.291" y2="585.99" gradientUnits="userSpaceOnUse">
<stop stop-color="#FCFF68"/>
<stop offset="1" stop-color="#FF8A00"/>
</linearGradient>
<linearGradient id="paint5_linear_21_630" x1="416.863" y1="91.4553" x2="416.863" y2="742.272" gradientUnits="userSpaceOnUse">
<stop stop-color="#FFA800"/>
<stop offset="0.9999" stop-color="#FFE11C"/>
<stop offset="1" stop-color="#FDFF83"/>
</linearGradient>
</defs>
</svg>
